<svg xmlns="http://www.w3.org/2000/svg" viewBox="8.500000127156568 8.5000077565511 182.9999844868978 182.9999844868978" preserveAspectRatio="xMidYMid meet" style="stroke-width: 1px;">
    <g>
        <path d="M169.9 143.7l16.4-13.7-25.8-17.6c1.8-2.8 4.5-7.3 6.5-11.4.3-.6 2.6-5.8 3.7-9.4 2.3-7.5 3.4-14.4 3.4-21.2 0-27.7-21.7-50.3-48.3-50.3C113.3 20 101 25.2 92 34.4 83.1 25.2 70.8 20 58.3 20 31.7 20 10 42.6 10 70.3c0 7 1.2 14.2 3.4 21.2.1.2 2 6.1 3.7 9.5 10.2 21.9 29.8 39.7 44.4 50.8 15.6 11.8 28.9 18.6 29.5 18.9l1 .5 1-.5c.1-.1 13.7-7 29.5-18.9 2.1-1.6 5-4 7.7-6.2l5.2 21.7 17.9-13.1 21.9 25.8 14.8-12.5-20.1-23.8zM92 166.2c-6.5-3.5-53.4-29.6-70.9-67.1V99c-1.6-3.1-3.5-8.8-3.5-8.8-2.1-6.6-3.2-13.3-3.2-19.9 0-25.3 19.7-45.9 43.8-45.9 12.1 0 23.8 5.3 32.1 14.6l1.7 1.9 1.7-1.9c8.3-9.3 20-14.6 32.1-14.6 24.2 0 43.8 20.6 43.8 45.9 0 6.3-1.1 12.9-3.2 19.9-1.1 3.5-3.5 8.9-3.5 8.9-1.5 3.2-4 7.5-6 10.8l-42-28.7 14.2 59.4C111.7 155.4 94.3 165 92 166.2zm62-18l-15.8 11.6-16.3-68.3 57.1 39-15.4 12.8 20.2 23.8-8.1 6.8-21.7-25.7z"></path>
    </g>
</svg>
