<svg xmlns="http://www.w3.org/2000/svg" viewBox="-1.492537313432834 -1.9425304469777558 202.98507462686567 202.98507462686567" preserveAspectRatio="xMidYMid meet" style="stroke-width: 1px;">
    <g>
        <path d="M48.1 120.5l-7.7 13.7c-.5.8-1.3 1.4-2.3 1.4h-7.9c-12.5 0-25 6.1-25 19.7v4c0 1.5-1.2 2.6-2.6 2.6S0 160.7 0 159.2v-4c0-14.7 12.5-24.9 30.3-24.9h6.3l6.9-12.4c.7-1.3 2.3-1.7 3.6-1 1.3.7 1.8 2.3 1 3.6zm40.5 9.8h-6.5l-8.4-12.6c-.8-1.2-2.4-1.5-3.7-.7-1.2.8-1.5 2.4-.7 3.7l9.2 13.7c.5.7 1.3 1.2 2.2 1.2h7.9c13.9 0 21.9 7.2 21.9 19.7v4c0 1.5 1.2 2.6 2.6 2.6 1.5 0 2.6-1.2 2.6-2.6v-4c.1-15.5-10.3-25-27.1-25zm42.1 0h-6.5l-7.2-10.7c5.8-6.2 7.1-15.8 7.3-25.1 5.3-.9 7.2-4.4 7.2-7.7V76.3c0-2.4 0-6.6-5.3-7.7v-8.1c0-8.6-2.3-14.8-6.8-18.5-4.7-3.9-11.5-4.8-20.7-3-1.4.3-2.4 1.7-2.1 3.1.3 1.4 1.6 2.4 3.1 2.1 7.6-1.5 13-.9 16.4 1.9 3.2 2.6 4.8 7.5 4.8 14.4V71c0 1.5 1.2 2.6 2.6 2.6 2.6 0 2.6 0 2.6 2.6v10.5c0 .7 0 2.6-4.6 2.6-1.5 0-2.6 1.2-2.6 2.6 0 9.5-.9 19.6-6.9 24.9l-.1.1c-.8.7-1.8 1.4-2.8 1.9-1.3.7-1.8 2.2-1.2 3.5.5.9 1.4 1.4 2.3 1.4.4 0 .8-.1 1.2-.3.5-.2.9-.5 1.3-.8l7.7 11.5c.5.7 1.3 1.2 2.2 1.2h7.9c13.9 0 21.9 7.2 21.9 19.7v4c0 1.5 1.2 2.6 2.6 2.6s2.6-1.2 2.6-2.6v-4c.3-15.2-10.1-24.7-26.9-24.7zm42.1 0h-6.5l-7.2-10.7c5.8-6.2 7.1-15.8 7.3-25.1 2.1-.3 3.9-1.1 5.1-2.3 1.4-1.4 2.1-3.2 2.1-5.3V76.3c0-2.4 0-6.6-5.3-7.7v-8.1c0-8.6-2.3-14.8-6.8-18.5-4.7-3.8-11.5-4.8-20.7-3-1.4.3-2.4 1.7-2.1 3.1.3 1.4 1.7 2.4 3.1 2.1 7.6-1.5 13-.9 16.4 1.9 3.2 2.6 4.8 7.5 4.8 14.4V71c0 1.5 1.2 2.6 2.6 2.6 2.6 0 2.6 0 2.6 2.6v10.5c0 1-.4 1.4-.5 1.6-.7.7-2.1 1-4 1A2.732 2.732 0 0 0 161 92c0 9.5-.9 19.7-6.9 25l-.1.1c-.8.7-1.8 1.4-2.8 1.9-1.3.7-1.8 2.2-1.2 3.5.5.9 1.4 1.4 2.3 1.4.4 0 .8-.1 1.2-.3.5-.2.9-.5 1.3-.8l7.7 11.5c.5.7 1.3 1.2 2.2 1.2h7.9c13.9 0 21.9 7.2 21.9 19.7v4c0 1.5 1.2 2.6 2.6 2.6s2.6-1.2 2.6-2.6v-4c.3-15.4-10.1-24.9-26.9-24.9zM56.6 117.1c-30.8 0-41.8-17.2-44.5-22.5-.4-.8-.4-1.8.1-2.5 2.5-4.2 9.2-15.9 10.2-20.3 5-21.4 17.5-33.6 34.1-33.6s29.1 12.2 34.1 33.6c1 4.4 7.7 16.1 10.2 20.3.5.8.5 1.7.1 2.5-2.4 5.3-13.5 22.5-44.3 22.5zm39.1-23.6c-2.4-4-8.8-15.4-10.1-20.5-2.1-8.9-9.1-29.6-29-29.6S29.7 64.1 27.6 73c-1.2 5.1-7.7 16.5-10.1 20.5 3.2 5.6 13.4 18.4 39.1 18.4s35.9-12.8 39.1-18.4z"></path>
    </g>
</svg>
